#tb 0: 1/30
#tb 1: 1/44100
0,          0,          0,        1,   153600, 0xdc5d4195
1,          0,          0,     1024,     4096, 0x9d60df46
1,       1024,       1024,      446,     1784, 0x72daa6eb
0,          1,          1,        1,   153600, 0x7a2355e2
1,       1470,       1470,     1024,     4096, 0xbc62afc0
1,       2494,       2494,      446,     1784, 0x29bb9dc3
0,          2,          2,        1,   153600, 0x08dbbc2d
1,       2940,       2940,     1024,     4096, 0x0a975082
1,       3964,       3964,      446,     1784, 0x8bc97b33
0,          3,          3,        1,   153600, 0xafd9b8b5
1,       4410,       4410,     1024,     4096, 0x58a4bc43
1,       5434,       5434,      446,     1784, 0xdbac32d9
0,          4,          4,        1,   153600, 0xd219d980
1,       5880,       5880,     1024,     4096, 0x0546b22b
1,       6904,       6904,      446,     1784, 0xb783698d
0,          5,          5,        1,   153600, 0xca73ba2f
1,       7350,       7350,     1024,     4096, 0xb6da8d37
1,       8374,       8374,      446,     1784, 0x86729443
0,          6,          6,        1,   153600, 0x36cf5320
1,       8820,       8820,     1024,     4096, 0x67a87083
1,       9844,       9844,      446,     1784, 0x0ce71683
0,          7,          7,        1,   153600, 0x579363a4
1,      10290,      10290,     1024,     4096, 0xfc49e055
1,      11314,      11314,      446,     1784, 0x2a5c7f8d
0,          8,          8,        1,   153600, 0xf20f90b3
1,      11760,      11760,     1024,     4096, 0xb5950b40
1,      12784,      12784,      446,     1784, 0x9851a951
0,          9,          9,        1,   153600, 0xc52e4860
1,      13230,      13230,     1024,     4096, 0x5957a9eb
1,      14254,      14254,      446,     1784, 0x9281afd9
0,         10,         10,        1,   153600, 0x108e0476
1,      14700,      14700,     1024,     4096, 0x9053cd87
1,      15724,      15724,      446,     1784, 0x77d5cfbf
0,         11,         11,        1,   153600, 0x9aba18c3
1,      16170,      16170,     1024,     4096, 0xd03c62a0
1,      17194,      17194,      446,     1784, 0x17d682fb
0,         12,         12,        1,   153600, 0x952c7f0e
1,      17640,      17640,     1024,     4096, 0x5e6f8f14
1,      18664,      18664,      446,     1784, 0xe8ec4e7d
0,         13,         13,        1,   153600, 0x1a487b96
1,      19110,      19110,     1024,     4096, 0x0a3e5f7a
1,      20134,      20134,      446,     1784, 0x41004ebf
0,         14,         14,        1,   153600, 0x09509c61
1,      20580,      20580,     1024,     4096, 0x10ea36b7
1,      21604,      21604,      446,     1784, 0x36cf9fbb
0,         15,         15,        1,   153600, 0xd6537d10
1,      22050,      22050,     1024,     4096, 0x82f66bc8
1,      23074,      23074,      446,     1784, 0x857505d5
0,         16,         16,        1,   153600, 0x07f51601
1,      23520,      23520,     1024,     4096, 0xebe35fe0
1,      24544,      24544,      446,     1784, 0xa2fc63cf
0,         17,         17,        1,   153600, 0x077d2685
1,      24990,      24990,     1024,     4096, 0xb87f0aaa
1,      26014,      26014,      446,     1784, 0x9698fa0d
0,         18,         18,        1,   153600, 0x5d945394
1,      26460,      26460,     1024,     4096, 0x5c58eaa8
1,      27484,      27484,      446,     1784, 0x35c0b905
0,         19,         19,        1,   153600, 0x46810b41
1,      27930,      27930,     1024,     4096, 0x60ac653d
1,      28954,      28954,      446,     1784, 0xc4fd7ccb
0,         20,         20,        1,   153600, 0x337d6ac1
1,      29400,      29400,     1024,     4096, 0xd13d0cb8
1,      30424,      30424,      446,     1784, 0xe47eb227
0,         21,         21,        1,   153600, 0xbda97f0e
1,      30870,      30870,     1024,     4096, 0x77b0b711
1,      31894,      31894,      446,     1784, 0x1b9af017
0,         22,         22,        1,   153600, 0xb81be559
1,      32340,      32340,     1024,     4096, 0xe92a9a3a
1,      33364,      33364,      446,     1784, 0x69c2468d
0,         23,         23,        1,   153600, 0x3d37e1e1
1,      33810,      33810,     1024,     4096, 0x9b1da899
1,      34834,      34834,      446,     1784, 0xa1b68d6f
0,         24,         24,        1,   153600, 0x2c3f02bb
1,      35280,      35280,     1024,     4096, 0xf8634b84
1,      36304,      36304,      446,     1784, 0x65a0504f
0,         25,         25,        1,   153600, 0xf942e35b
1,      36750,      36750,     1024,     4096, 0x851f02da
1,      37774,      37774,      446,     1784, 0x6e4b38a7
0,         26,         26,        1,   153600, 0x2ae47c4c
1,      38220,      38220,     1024,     4096, 0xb66a75d9
1,      39244,      39244,      446,     1784, 0xc70636e3
0,         27,         27,        1,   153600, 0x2a6c8cd0
1,      39690,      39690,     1024,     4096, 0x62938bdb
1,      40714,      40714,      446,     1784, 0x921088e7
0,         28,         28,        1,   153600, 0x8083b9df
1,      41160,      41160,     1024,     4096, 0xaf859c39
1,      42184,      42184,      446,     1784, 0xdd024e1f
0,         29,         29,        1,   153600, 0x6970718c
1,      42630,      42630,     1024,     4096, 0x23e7da5d
1,      43654,      43654,      446,     1784, 0xf7aa5673
0,         30,         30,        1,   153600, 0xfc6c6749
1,      44100,      44100,     1024,     4096, 0xe9c3b0ab
1,      45124,      45124,      446,     1784, 0x81386e11
0,         31,         31,        1,   153600, 0x7c8687d3
1,      45570,      45570,     1024,     4096, 0x5f0c2c5a
1,      46594,      46594,      446,     1784, 0x3d606083
0,         32,         32,        1,   153600, 0x7c3bee7c
1,      47040,      47040,     1024,     4096, 0x00ec2e09
1,      48064,      48064,      446,     1784, 0x02e85d9b
0,         33,         33,        1,   153600, 0x97a8f186
1,      48510,      48510,     1024,     4096, 0x88564cc5
1,      49534,      49534,      446,     1784, 0x900a02e1
0,         34,         34,        1,   153600, 0x4dbe102b
1,      49980,      49980,     1024,     4096, 0x3eda412a
1,      51004,      51004,      446,     1784, 0x236b0851
0,         35,         35,        1,   153600, 0x01876f3a
1,      51450,      51450,     1024,     4096, 0xbc060408
1,      52474,      52474,      446,     1784, 0xedbc91a7
0,         36,         36,        1,   153600, 0x678587aa
1,      52920,      52920,     1024,     4096, 0x9b7db3d9
1,      53944,      53944,      446,     1784, 0x90534a39
0,         37,         37,        1,   153600, 0x5c5d976e
1,      54390,      54390,     1024,     4096, 0xc12bb58b
1,      55414,      55414,      446,     1784, 0xf9a9b307
0,         38,         38,        1,   153600, 0x71e4445e
1,      55860,      55860,     1024,     4096, 0x9173ea5d
1,      56884,      56884,      446,     1784, 0xc2d5f9f2
0,         39,         39,        1,   153600, 0xa72dfc84
1,      57330,      57330,     1024,     4096, 0xeb9481d3
1,      58354,      58354,      446,     1784, 0xfdeefa88
0,         40,         40,        1,   153600, 0x306a84c1
1,      58800,      58800,     1024,     4096, 0xce030746
1,      59824,      59824,      446,     1784, 0x37843bff
0,         41,         41,        1,   153600, 0x4a141cbe
1,      60270,      60270,     1024,     4096, 0x3c0165fa
1,      61294,      61294,      446,     1784, 0xbccbad09
0,         42,         42,        1,   153600, 0x7a20841a
1,      61740,      61740,     1024,     4096, 0xfe68de11
1,      62764,      62764,      446,     1784, 0x1f71b2a1
0,         43,         43,        1,   153600, 0xff45f3dd
1,      63210,      63210,     1024,     4096, 0x9ba78b5e
1,      64234,      64234,      446,     1784, 0x50f9a461
0,         44,         44,        1,   153600, 0x75da9b71
1,      64680,      64680,     1024,     4096, 0xccecf2c9
1,      65704,      65704,      446,     1784, 0x02f8460d
0,         45,         45,        1,   153600, 0x007e8257
1,      66150,      66150,     1024,     4096, 0x10b6533d
1,      67174,      67174,      446,     1784, 0xa6207ce3
0,         46,         46,        1,   153600, 0xb6c915f1
1,      67620,      67620,     1024,     4096, 0xd7762e5e
1,      68644,      68644,      446,     1784, 0xefc16c53
0,         47,         47,        1,   153600, 0x162625b4
1,      69090,      69090,     1024,     4096, 0xa85d3a1e
1,      70114,      70114,      446,     1784, 0xcf947179
0,         48,         48,        1,   153600, 0xa0705878
1,      70560,      70560,     1024,     4096, 0x4f05e429
1,      71584,      71584,      446,     1784, 0x5a5b9115
0,         49,         49,        1,   153600, 0x40b810c3
1,      72030,      72030,     1024,     4096, 0x1d7a4da4
1,      73054,      73054,      446,     1784, 0xb266ce69
0,         50,         50,        1,   153600, 0x3328f440
1,      73500,      73500,     1024,     4096, 0xd95b95ac
1,      74524,      74524,      446,     1784, 0xa5038849
0,         51,         51,        1,   153600, 0x4fa6f6d8
1,      74970,      74970,     1024,     4096, 0x90045835
1,      75994,      75994,      446,     1784, 0x45dfa721
0,         52,         52,        1,   153600, 0x07545d51
1,      76440,      76440,     1024,     4096, 0xd5030be2
1,      77464,      77464,      446,     1784, 0x35cca61b
0,         53,         53,        1,   153600, 0xdf285b77
1,      77910,      77910,     1024,     4096, 0x9e0727f2
1,      78934,      78934,      446,     1784, 0x108c5cf3
0,         54,         54,        1,   153600, 0x898eff09
1,      79380,      79380,     1024,     4096, 0xad9a6e1b
1,      80404,      80404,      446,     1784, 0x207908d7
0,         55,         55,        1,   153600, 0xe260dfe7
1,      80850,      80850,     1024,     4096, 0x7b2d081a
1,      81874,      81874,      446,     1784, 0x95206331
0,         56,         56,        1,   153600, 0xf162f355
1,      82320,      82320,     1024,     4096, 0x167e4a20
1,      83344,      83344,      446,     1784, 0xb0783bf3
0,         57,         57,        1,   153600, 0xd03900b4
1,      83790,      83790,     1024,     4096, 0xa99eaa21
1,      84814,      84814,      446,     1784, 0x6f864deb
0,         58,         58,        1,   153600, 0x1953c1cc
1,      85260,      85260,     1024,     4096, 0x6bcd93c9
1,      86284,      86284,      446,     1784, 0x1f66562f
0,         59,         59,        1,   153600, 0xe32ceee5
1,      86730,      86730,     1024,     4096, 0x529f9823
1,      87754,      87754,      446,     1784, 0x388c58c9
0,         60,         60,        1,   153600, 0xb6e974bf
1,      88200,      88200,     1024,     4096, 0x001cefb7
1,      89224,      89224,      446,     1784, 0xa01dc1dd
0,         61,         61,        1,   153600, 0x47570003
1,      89670,      89670,     1024,     4096, 0xc89459ec
1,      90694,      90694,      446,     1784, 0x9dad790d
0,         62,         62,        1,   153600, 0x3ff96736
1,      91140,      91140,     1024,     4096, 0x02362fb2
1,      92164,      92164,      446,     1784, 0x2577c085
0,         63,         63,        1,   153600, 0xcc66dfe5
1,      92610,      92610,     1024,     4096, 0xc9f73c9a
1,      93634,      93634,      446,     1784, 0xce6d4669
0,         64,         64,        1,   153600, 0x91727cbe
1,      94080,      94080,     1024,     4096, 0x573bf8b7
1,      95104,      95104,      446,     1784, 0xf6878a2d
0,         65,         65,        1,   153600, 0x0b3f5c82
1,      95550,      95550,     1024,     4096, 0xc6d89e77
1,      96574,      96574,      446,     1784, 0xdc807091
0,         66,         66,        1,   153600, 0xbac900c9
1,      97020,      97020,     1024,     4096, 0xd61ff92d
1,      98044,      98044,      446,     1784, 0xe1ef84c3
0,         67,         67,        1,   153600, 0x73c10d5a
1,      98490,      98490,     1024,     4096, 0x8062c7b3
1,      99514,      99514,      446,     1784, 0x508a9b4b
0,         68,         68,        1,   153600, 0xb2353875
1,      99960,      99960,     1024,     4096, 0xf0c80c92
1,     100984,     100984,      446,     1784, 0x1c8d6b19
0,         69,         69,        1,   153600, 0x5297f125
1,     101430,     101430,     1024,     4096, 0x8fb41bc8
1,     102454,     102454,      446,     1784, 0x2877467f
0,         70,         70,        1,   153600, 0x05b516ea
1,     102900,     102900,     1024,     4096, 0x2a8657d8
1,     103924,     103924,      446,     1784, 0x0fe27913
0,         71,         71,        1,   153600, 0x7cb30f34
1,     104370,     104370,     1024,     4096, 0x7835b276
1,     105394,     105394,      446,     1784, 0xd33992af
0,         72,         72,        1,   153600, 0x35961ea8
1,     105840,     105840,     1024,     4096, 0xc77c0660
1,     106864,     106864,      446,     1784, 0x911075c1
0,         73,         73,        1,   153600, 0x93d68291
1,     107310,     107310,     1024,     4096, 0x6ae9b807
1,     108334,     108334,      446,     1784, 0x5ce63d8f
0,         74,         74,        1,   153600, 0x9a0a2f40
1,     108780,     108780,     1024,     4096, 0x540a2da0
1,     109804,     109804,      446,     1784, 0x6553ae1d
0,         75,         75,        1,   153600, 0x7e0c1073
1,     110250,     110250,     1024,     4096, 0xdd1e25ac
1,     111274,     111274,      446,     1784, 0xc3812f95
0,         76,         76,        1,   153600, 0x8e3b1cfb
1,     111720,     111720,     1024,     4096, 0xa69d8d1b
1,     112744,     112744,      446,     1784, 0xdfdd2627
0,         77,         77,        1,   153600, 0x8ce3aae7
1,     113190,     113190,     1024,     4096, 0x8ce34b8e
1,     114214,     114214,      446,     1784, 0x135983a7
0,         78,         78,        1,   153600, 0x91c7e793
1,     114660,     114660,     1024,     4096, 0xc815c9d1
1,     115684,     115684,      446,     1784, 0x705b7c4d
0,         79,         79,        1,   153600, 0x8e671235
1,     116130,     116130,     1024,     4096, 0x2640d9f5
1,     117154,     117154,      446,     1784, 0x1cf5035d
0,         80,         80,        1,   153600, 0x096f1049
1,     117600,     117600,     1024,     4096, 0xb7d96244
1,     118624,     118624,      446,     1784, 0x359da7cf
0,         81,         81,        1,   153600, 0xf85ea8bf
1,     119070,     119070,     1024,     4096, 0x9151a7a1
1,     120094,     120094,      446,     1784, 0x1d058443
0,         82,         82,        1,   153600, 0x401f00de
1,     120540,     120540,     1024,     4096, 0xebb3e365
1,     121564,     121564,      446,     1784, 0xed11b379
0,         83,         83,        1,   153600, 0x400ffd14
1,     122010,     122010,     1024,     4096, 0xdd789575
1,     123034,     123034,      446,     1784, 0x8a727a39
0,         84,         84,        1,   153600, 0xab4e1d98
1,     123480,     123480,     1024,     4096, 0x9e12bfad
1,     124504,     124504,      446,     1784, 0x8c3ab8e3
0,         85,         85,        1,   153600, 0x6bc4fd10
1,     124950,     124950,     1024,     4096, 0xc2081eb6
1,     125974,     125974,      446,     1784, 0xe0f531c7
0,         86,         86,        1,   153600, 0xa5c69dc0
1,     126420,     126420,     1024,     4096, 0x180ade1d
1,     127444,     127444,      446,     1784, 0x5c199163
0,         87,         87,        1,   153600, 0x9cf4aa2c
1,     127890,     127890,     1024,     4096, 0x41073739
1,     128914,     128914,      446,     1784, 0x08b668db
0,         88,         88,        1,   153600, 0x8418e0cc
1,     129360,     129360,     1024,     4096, 0x29111c50
1,     130384,     130384,      446,     1784, 0x1141a7a7
0,         89,         89,        1,   153600, 0xaae9918b
1,     130830,     130830,     1024,     4096, 0xd48f0e50
1,     131854,     131854,      446,     1784, 0xe62e8e9f
0,         90,         90,        1,   153600, 0xf8456865
1,     132300,     132300,     1024,     4096, 0xbf07b3ef
1,     133324,     133324,      446,     1784, 0x2619d302
0,         91,         91,        1,   153600, 0x697b7426
1,     133770,     133770,     1024,     4096, 0xbef41802
1,     134794,     134794,      446,     1784, 0xb75ced01
0,         92,         92,        1,   153600, 0x7d36ce7a
1,     135240,     135240,     1024,     4096, 0xa8f0c389
1,     136264,     136264,      446,     1784, 0xf52b9e49
0,         93,         93,        1,   153600, 0xeee1cac6
1,     136710,     136710,     1024,     4096, 0x17260330
1,     137734,     137734,      446,     1784, 0xa39ee1c7
0,         94,         94,        1,   153600, 0x02b87781
1,     138180,     138180,     1024,     4096, 0xe0c053c8
1,     139204,     139204,      446,     1784, 0x0c5a8f25
0,         95,         95,        1,   153600, 0xe371d3e1
1,     139650,     139650,     1024,     4096, 0xfd1c1646
1,     140674,     140674,      446,     1784, 0x2c9452f1
0,         96,         96,        1,   153600, 0xe4907430
1,     141120,     141120,     1024,     4096, 0xa189ba86
1,     142144,     142144,      446,     1784, 0xa4365a33
0,         97,         97,        1,   153600, 0xe63bfb94
1,     142590,     142590,     1024,     4096, 0x1b07acef
1,     143614,     143614,      446,     1784, 0xdf46efdf
0,         98,         98,        1,   153600, 0xe44a31f7
1,     144060,     144060,     1024,     4096, 0x4e15c5f6
1,     145084,     145084,      446,     1784, 0x80ce8971
0,         99,         99,        1,   153600, 0xde16644b
1,     145530,     145530,     1024,     4096, 0xed2d1d02
1,     146554,     146554,      446,     1784, 0x59d44b51
0,        100,        100,        1,   153600, 0xf3d72c1d
1,     147000,     147000,     1024,     4096, 0x4a512ea6
1,     148024,     148024,      446,     1784, 0x684c40f3
0,        101,        101,        1,   153600, 0x471fb579
1,     148470,     148470,     1024,     4096, 0xc94e0c4c
1,     149494,     149494,      446,     1784, 0x4382c494
0,        102,        102,        1,   153600, 0xd4228b94
1,     149940,     149940,     1024,     4096, 0xdff36c39
1,     150964,     150964,      446,     1784, 0x96f78a19
0,        103,        103,        1,   153600, 0x6bee861c
1,     151410,     151410,     1024,     4096, 0x6dcffd77
1,     152434,     152434,      446,     1784, 0x6bb69263
0,        104,        104,        1,   153600, 0xcf12206a
1,     152880,     152880,     1024,     4096, 0x12ce200a
1,     153904,     153904,      446,     1784, 0x8340a4d7
0,        105,        105,        1,   153600, 0xf9cf8444
1,     154350,     154350,     1024,     4096, 0xc8e023e4
1,     155374,     155374,      446,     1784, 0x61e089f3
0,        106,        106,        1,   153600, 0x79e221d9
1,     155820,     155820,     1024,     4096, 0x77729c3b
1,     156844,     156844,      446,     1784, 0x4b3a8f23
0,        107,        107,        1,   153600, 0x3bd5a514
1,     157290,     157290,     1024,     4096, 0xbd67def7
1,     158314,     158314,      446,     1784, 0x3a62cf2b
0,        108,        108,        1,   153600, 0xd39ae155
1,     158760,     158760,     1024,     4096, 0xa495ab3d
1,     159784,     159784,      446,     1784, 0x23c8f44d
0,        109,        109,        1,   153600, 0xac2c124b
1,     160230,     160230,     1024,     4096, 0x80f71ab6
1,     161254,     161254,      446,     1784, 0xbfca52b5
0,        110,        110,        1,   153600, 0x3bd598ad
1,     161700,     161700,     1024,     4096, 0x25d4b705
1,     162724,     162724,      446,     1784, 0x7c36f37d
0,        111,        111,        1,   153600, 0x15a7219f
1,     163170,     163170,     1024,     4096, 0x5c033664
1,     164194,     164194,      446,     1784, 0x979c314b
0,        112,        112,        1,   153600, 0x7fa2fba2
1,     164640,     164640,     1024,     4096, 0xffe5574e
1,     165664,     165664,      446,     1784, 0x3faa45bf
0,        113,        113,        1,   153600, 0xc997f5bf
1,     166110,     166110,     1024,     4096, 0x021f74ca
1,     167134,     167134,      446,     1784, 0xd3de9479
0,        114,        114,        1,   153600, 0xeb121c04
1,     167580,     167580,     1024,     4096, 0x54a584c6
1,     168604,     168604,      446,     1784, 0xbc17be65
0,        115,        115,        1,   153600, 0xbf91f97a
1,     169050,     169050,     1024,     4096, 0xa49c17c0
1,     170074,     170074,      446,     1784, 0x42dd7cfb
0,        116,        116,        1,   153600, 0x8cdd9d79
1,     170520,     170520,     1024,     4096, 0x0121b027
1,     171544,     171544,      446,     1784, 0x19864a6f
0,        117,        117,        1,   153600, 0x5272a116
1,     171990,     171990,     1024,     4096, 0x135ebb51
1,     173014,     173014,      446,     1784, 0x6e746d9b
0,        118,        118,        1,   153600, 0x8a18e073
1,     173460,     173460,     1024,     4096, 0xfac18851
1,     174484,     174484,      446,     1784, 0x816842ef
0,        119,        119,        1,   153600, 0x56889081
1,     174930,     174930,     1024,     4096, 0xa5a00bfe
1,     175954,     175954,      446,     1784, 0xa166a80b
0,        120,        120,        1,   153600, 0x1fddcb02
1,     176400,     176400,     1024,     4096, 0xa03df803
1,     177424,     177424,      446,     1784, 0x4d380431
0,        121,        121,        1,   153600, 0x7bf1d933
1,     177870,     177870,     1024,     4096, 0xd4249027
1,     178894,     178894,      446,     1784, 0x96e071d3
0,        122,        122,        1,   153600, 0x38d5c279
1,     179340,     179340,     1024,     4096, 0x4967287a
1,     180364,     180364,      446,     1784, 0x45c415cd
0,        123,        123,        1,   153600, 0x36edbe3e
1,     180810,     180810,     1024,     4096, 0x0420b239
1,     181834,     181834,      446,     1784, 0xdbefbca5
0,        124,        124,        1,   153600, 0xb3d04793
1,     182280,     182280,     1024,     4096, 0x4891d5f5
1,     183304,     183304,      446,     1784, 0xde24c9c9
0,        125,        125,        1,   153600, 0xf2acaa1b
1,     183750,     183750,     1024,     4096, 0xf85e6f48
1,     184774,     184774,      446,     1784, 0xa4a38223
0,        126,        126,        1,   153600, 0xb8b14b8d
1,     185220,     185220,     1024,     4096, 0xdf8ea759
1,     186244,     186244,      446,     1784, 0xc18b39ef
0,        127,        127,        1,   153600, 0xc9d9cd72
1,     186690,     186690,     1024,     4096, 0x15047c64
1,     187714,     187714,      446,     1784, 0x36c1a815
0,        128,        128,        1,   153600, 0x8f5394c6
1,     188160,     188160,     1024,     4096, 0x0a278732
1,     189184,     189184,      446,     1784, 0x3cf6745f
0,        129,        129,        1,   153600, 0xf2f74584
1,     189630,     189630,     1024,     4096, 0x38d81604
1,     190654,     190654,      446,     1784, 0x2eca4d21
0,        130,        130,        1,   153600, 0xa4134699
1,     191100,     191100,     1024,     4096, 0x7fe88f8d
1,     192124,     192124,      446,     1784, 0x54afcdb9
0,        131,        131,        1,   153600, 0x50d45391
1,     192570,     192570,     1024,     4096, 0x5bdd1bd4
1,     193594,     193594,      446,     1784, 0xf8596fe7
0,        132,        132,        1,   153600, 0x987ab58e
1,     194040,     194040,     1024,     4096, 0xef71e9d1
1,     195064,     195064,      446,     1784, 0xb3171635
0,        133,        133,        1,   153600, 0x39b33b01
1,     195510,     195510,     1024,     4096, 0x830cd582
1,     196534,     196534,      446,     1784, 0xaf7e69f9
0,        134,        134,        1,   153600, 0x8284c30e
1,     196980,     196980,     1024,     4096, 0x3aa3b641
1,     198004,     198004,      446,     1784, 0x36381779
0,        135,        135,        1,   153600, 0x9d63a00b
1,     198450,     198450,     1024,     4096, 0x303ea283
1,     199474,     199474,      446,     1784, 0xa3c50ed3
0,        136,        136,        1,   153600, 0x14f84346
1,     199920,     199920,     1024,     4096, 0x12bbd9f5
1,     200944,     200944,      446,     1784, 0x326c7889
0,        137,        137,        1,   153600, 0xa54f492c
1,     201390,     201390,     1024,     4096, 0xa594d8c9
1,     202414,     202414,      446,     1784, 0x8d9c9cf5
0,        138,        138,        1,   153600, 0x04788d25
1,     202860,     202860,     1024,     4096, 0xbeb5bbb9
1,     203884,     203884,      446,     1784, 0x976bfc90
0,        139,        139,        1,   153600, 0x66c23406
1,     204330,     204330,     1024,     4096, 0x76de0b42
1,     205354,     205354,      446,     1784, 0x446d77bd
0,        140,        140,        1,   153600, 0xf412fca8
1,     205800,     205800,     1024,     4096, 0x4f8c96fd
1,     206824,     206824,      446,     1784, 0xd2369023
0,        141,        141,        1,   153600, 0xa0df082c
1,     207270,     207270,     1024,     4096, 0xf144b11e
1,     208294,     208294,      446,     1784, 0x281a7d4f
0,        142,        142,        1,   153600, 0xd275f50a
1,     208740,     208740,     1024,     4096, 0x11969021
1,     209764,     209764,      446,     1784, 0xfb46a1e3
0,        143,        143,        1,   153600, 0x04b64e5a
1,     210210,     210210,     1024,     4096, 0xe9bb65bf
1,     211234,     211234,      446,     1784, 0x3a170beb
0,        144,        144,        1,   153600, 0x71ff7807
1,     211680,     211680,     1024,     4096, 0x0b08cdcf
1,     212704,     212704,      446,     1784, 0x9f4e66a1
0,        145,        145,        1,   153600, 0x4777de35
1,     213150,     213150,     1024,     4096, 0x965be0af
1,     214174,     214174,      446,     1784, 0xb88177fb
0,        146,        146,        1,   153600, 0x738384df
1,     214620,     214620,     1024,     4096, 0x584ea626
1,     215644,     215644,      446,     1784, 0x33e3cb49
0,        147,        147,        1,   153600, 0xec58f3ef
1,     216090,     216090,     1024,     4096, 0xf55635a4
1,     217114,     217114,      446,     1784, 0xedcf00b2
0,        148,        148,        1,   153600, 0xf924c4a4
1,     217560,     217560,     1024,     4096, 0x67911a02
1,     218584,     218584,      446,     1784, 0xc91f67c5
0,        149,        149,        1,   153600, 0x2aea73cb
1,     219030,     219030,     1024,     4096, 0xbf64337d
1,     220054,     220054,      446,     1784, 0x7f1b0389
0,        150,        150,        1,   153600, 0x60e47ae5
1,     220500,     220500,     1024,     4096, 0x02196e2d
1,     221524,     221524,      446,     1784, 0xd844ec8e
0,        151,        151,        1,   153600, 0x4e8989f9
1,     221970,     221970,     1024,     4096, 0x1031b193
1,     222994,     222994,      446,     1784, 0xa1c22713
0,        152,        152,        1,   153600, 0xdf0dea11
1,     223440,     223440,     1024,     4096, 0x354baa01
1,     224464,     224464,      446,     1784, 0x10d93177
0,        153,        153,        1,   153600, 0x9687e618
1,     224910,     224910,     1024,     4096, 0x547ecfe8
1,     225934,     225934,      446,     1784, 0xf5e756ff
0,        154,        154,        1,   153600, 0xed7d0bd8
1,     226380,     226380,     1024,     4096, 0x34cd61df
1,     227404,     227404,      446,     1784, 0xc0123ffb
0,        155,        155,        1,   153600, 0xd6c7d19c
1,     227850,     227850,     1024,     4096, 0x5199dc63
1,     228874,     228874,      446,     1784, 0xfc922a91
0,        156,        156,        1,   153600, 0x2179ff67
1,     229320,     229320,     1024,     4096, 0x14c10632
1,     230344,     230344,      446,     1784, 0x8a646735
0,        157,        157,        1,   153600, 0xe7e0788f
1,     230790,     230790,     1024,     4096, 0xfc3dccf1
1,     231814,     231814,      446,     1784, 0x28728469
0,        158,        158,        1,   153600, 0x31943e90
1,     232260,     232260,     1024,     4096, 0xe9d72c20
1,     233284,     233284,      446,     1784, 0xc7526e29
0,        159,        159,        1,   153600, 0x7de2f2b2
1,     233730,     233730,     1024,     4096, 0xd3093d0a
1,     234754,     234754,      446,     1784, 0x5bd92303
0,        160,        160,        1,   153600, 0x98d6cacd
1,     235200,     235200,     1024,     4096, 0xa127e459
1,     236224,     236224,      446,     1784, 0xaf3a9379
0,        161,        161,        1,   153600, 0xeabf5cb4
1,     236670,     236670,     1024,     4096, 0x8e3ae09e
1,     237694,     237694,      446,     1784, 0x43d852f7
0,        162,        162,        1,   153600, 0x7cb0c3f6
1,     238140,     238140,     1024,     4096, 0xa96b2517
1,     239164,     239164,      446,     1784, 0xdcdc56a5
0,        163,        163,        1,   153600, 0x01c6325c
1,     239610,     239610,     1024,     4096, 0x97f85990
1,     240634,     240634,      446,     1784, 0xe8584125
0,        164,        164,        1,   153600, 0x19ad589e
1,     241080,     241080,     1024,     4096, 0x78e1d5db
1,     242104,     242104,      446,     1784, 0xa249463f
0,        165,        165,        1,   153600, 0xafb4a90b
1,     242550,     242550,     1024,     4096, 0xc25856cc
1,     243574,     243574,      446,     1784, 0x4f4654ad
0,        166,        166,        1,   153600, 0x4fff5143
1,     244020,     244020,     1024,     4096, 0x274e1072
1,     245044,     245044,      446,     1784, 0x2003229d
0,        167,        167,        1,   153600, 0xfe9dc203
1,     245490,     245490,     1024,     4096, 0xc5848431
1,     246514,     246514,      446,     1784, 0x1b68676b
0,        168,        168,        1,   153600, 0x84e794c9
1,     246960,     246960,     1024,     4096, 0xd51cd937
1,     247984,     247984,      446,     1784, 0xd65a7665
0,        169,        169,        1,   153600, 0x2b42bd89
1,     248430,     248430,     1024,     4096, 0x1642ed35
1,     249454,     249454,      446,     1784, 0x978e5749
0,        170,        170,        1,   153600, 0x769ead64
1,     249900,     249900,     1024,     4096, 0x41a1b6a7
1,     250924,     250924,      446,     1784, 0xc77ea7cf
0,        171,        171,        1,   153600, 0x4312b44d
1,     251370,     251370,     1024,     4096, 0x01aeddb1
1,     252394,     252394,      446,     1784, 0xb9deb50d
0,        172,        172,        1,   153600, 0x1a13192b
1,     252840,     252840,     1024,     4096, 0xedb3a4ba
1,     253864,     253864,      446,     1784, 0xa1e5f6c6
0,        173,        173,        1,   153600, 0x55051377
1,     254310,     254310,     1024,     4096, 0x6c78f377
1,     255334,     255334,      446,     1784, 0x7bc27eef
0,        174,        174,        1,   153600, 0xa4083c23
1,     255780,     255780,     1024,     4096, 0x44ab46a4
1,     256804,     256804,      446,     1784, 0x9705d033
0,        175,        175,        1,   153600, 0xa83d004f
1,     257250,     257250,     1024,     4096, 0x94ef510c
1,     258274,     258274,      446,     1784, 0x4037cf0f
0,        176,        176,        1,   153600, 0x59f2ad00
1,     258720,     258720,     1024,     4096, 0x0147da73
1,     259744,     259744,      446,     1784, 0x6775cce7
0,        177,        177,        1,   153600, 0xfcaea6c3
1,     260190,     260190,     1024,     4096, 0x620c0730
1,     261214,     261214,      446,     1784, 0x8f89774f
0,        178,        178,        1,   153600, 0xea3df104
1,     261660,     261660,     1024,     4096, 0x3eb70346
1,     262684,     262684,      446,     1784, 0xbf3f5e33
0,        179,        179,        1,   153600, 0x8821a07f
1,     263130,     263130,     1024,     4096, 0x8c59c1bf
1,     264154,     264154,      446,     1784, 0x66133307
0,        180,        180,        1,   153600, 0x863548c1
1,     264600,     264600,     1024,     4096, 0x08f9f013
1,     265624,     265624,      446,     1784, 0xc201b557
0,        181,        181,        1,   153600, 0xc6024c1f
1,     266070,     266070,     1024,     4096, 0x3ae3d02f
1,     267094,     267094,      446,     1784, 0xf2c7ae19
0,        182,        182,        1,   153600, 0xd948b316
1,     267540,     267540,     1024,     4096, 0x4479858c
1,     268564,     268564,      446,     1784, 0xa11f9939
0,        183,        183,        1,   153600, 0xbf44ae96
1,     269010,     269010,     1024,     4096, 0x910cf58f
1,     270034,     270034,      446,     1784, 0xefdb8f2f
0,        184,        184,        1,   153600, 0xd0de615a
1,     270480,     270480,     1024,     4096, 0xde560426
1,     271504,     271504,      446,     1784, 0x5baa4c5f
0,        185,        185,        1,   153600, 0xf85d9bfc
1,     271950,     271950,     1024,     4096, 0xa1c22856
1,     272974,     272974,      446,     1784, 0x47cc6041
0,        186,        186,        1,   153600, 0xb83043fa
1,     273420,     273420,     1024,     4096, 0x92a348a4
1,     274444,     274444,      446,     1784, 0x68245871
0,        187,        187,        1,   153600, 0x2a56c7fc
1,     274890,     274890,     1024,     4096, 0x503f6b85
1,     275914,     275914,      446,     1784, 0xc8207f79
0,        188,        188,        1,   153600, 0xc8e08632
1,     276360,     276360,     1024,     4096, 0x2c971222
1,     277384,     277384,      446,     1784, 0xc8140086
0,        189,        189,        1,   153600, 0x2580bc72
1,     277830,     277830,     1024,     4096, 0xdf79d9dd
1,     278854,     278854,      446,     1784, 0x24414901
0,        190,        190,        1,   153600, 0x684bd6dc
1,     279300,     279300,     1024,     4096, 0x0ea9aa73
1,     280324,     280324,      446,     1784, 0x13e5c1a1
0,        191,        191,        1,   153600, 0x10414ee2
1,     280770,     280770,     1024,     4096, 0xa1a1f27c
1,     281794,     281794,      446,     1784, 0x4edf7351
0,        192,        192,        1,   153600, 0x602845e7
1,     282240,     282240,     1024,     4096, 0xf5fa341a
1,     283264,     283264,      446,     1784, 0xe7a5b6a3
0,        193,        193,        1,   153600, 0x9a8c3a06
1,     283710,     283710,     1024,     4096, 0x7c492be0
1,     284734,     284734,      446,     1784, 0xf9b6556b
0,        194,        194,        1,   153600, 0xeb016372
1,     285180,     285180,     1024,     4096, 0x96db76d4
1,     286204,     286204,      446,     1784, 0xccd25021
0,        195,        195,        1,   153600, 0xb9fdb425
1,     286650,     286650,     1024,     4096, 0x0be8d9eb
1,     287674,     287674,      446,     1784, 0xfc638e3b
0,        196,        196,        1,   153600, 0x0308d4c8
1,     288120,     288120,     1024,     4096, 0xaa3eaa1d
1,     289144,     289144,      446,     1784, 0x1048a6e3
0,        197,        197,        1,   153600, 0x2c6bcfa6
1,     289590,     289590,     1024,     4096, 0x6114a035
1,     290614,     290614,      446,     1784, 0x1cb296d7
0,        198,        198,        1,   153600, 0x50891cad
1,     291060,     291060,     1024,     4096, 0x8b65cd11
1,     292084,     292084,      446,     1784, 0x5328547b
0,        199,        199,        1,   153600, 0x60a3c9c0
1,     292530,     292530,     1024,     4096, 0x72704250
1,     293554,     293554,      446,     1784, 0xd5018385
0,        200,        200,        1,   153600, 0x0c8179d8
1,     294000,     294000,     1024,     4096, 0x74bcf1f7
1,     295024,     295024,      446,     1784, 0xc3314fe9
0,        201,        201,        1,   153600, 0x42e47766
1,     295470,     295470,     1024,     4096, 0x4f94cf5d
1,     296494,     296494,      446,     1784, 0xfeff7195
0,        202,        202,        1,   153600, 0xafd0e2fb
1,     296940,     296940,     1024,     4096, 0x226d9f1f
1,     297964,     297964,      446,     1784, 0x5ed44d67
0,        203,        203,        1,   153600, 0xf094dd06
1,     298410,     298410,     1024,     4096, 0x03939d46
1,     299434,     299434,      446,     1784, 0x1075b1c7
0,        204,        204,        1,   153600, 0x1c260109
1,     299880,     299880,     1024,     4096, 0x9b83d9fd
1,     300904,     300904,      446,     1784, 0x3a1aa1bb
0,        205,        205,        1,   153600, 0xa70ad952
1,     301350,     301350,     1024,     4096, 0xe760111c
1,     302374,     302374,      446,     1784, 0x018d7d2f
0,        206,        206,        1,   153600, 0xc34cfa19
1,     302820,     302820,     1024,     4096, 0xe52c5bd0
1,     303844,     303844,      446,     1784, 0x98324f43
0,        207,        207,        1,   153600, 0xa79bf3e4
1,     304290,     304290,     1024,     4096, 0x1dcf45dc
1,     305314,     305314,      446,     1784, 0xf9946991
0,        208,        208,        1,   153600, 0x62c7b5b6
1,     305760,     305760,     1024,     4096, 0xdbeb0478
1,     306784,     306784,      446,     1784, 0x30fe5613
0,        209,        209,        1,   153600, 0xa5e1e7f1
1,     307230,     307230,     1024,     4096, 0x28c86548
1,     308254,     308254,      446,     1784, 0x64c4951d
0,        210,        210,        1,   153600, 0x6aa201c2
1,     308700,     308700,     1024,     4096, 0x638871dc
1,     309724,     309724,      446,     1784, 0x875f2793
0,        211,        211,        1,   153600, 0xc0257d32
1,     310170,     310170,     1024,     4096, 0xbb259632
1,     311194,     311194,      446,     1784, 0x5932208b
0,        212,        212,        1,   153600, 0xf77d6fdb
1,     311640,     311640,     1024,     4096, 0xd4d9d0dd
1,     312664,     312664,      446,     1784, 0xecb2da75
0,        213,        213,        1,   153600, 0x896265e9
1,     313110,     313110,     1024,     4096, 0xf9f33535
1,     314134,     314134,      446,     1784, 0x7fba247d
0,        214,        214,        1,   153600, 0x8a8f07a6
1,     314580,     314580,     1024,     4096, 0xd6f352ac
1,     315604,     315604,      446,     1784, 0x20dc2c73
0,        215,        215,        1,   153600, 0x66246cf8
1,     316050,     316050,     1024,     4096, 0xa0d36b92
1,     317074,     317074,      446,     1784, 0x3c3124f5
0,        216,        216,        1,   153600, 0x2a720dd4
1,     317520,     317520,     1024,     4096, 0xa129a462
1,     318544,     318544,      446,     1784, 0x14752015
0,        217,        217,        1,   153600, 0xee44971b
1,     318990,     318990,     1024,     4096, 0x7529296c
1,     320014,     320014,      446,     1784, 0xe22fae59
0,        218,        218,        1,   153600, 0x08004df8
1,     320460,     320460,     1024,     4096, 0x3bd09d6b
1,     321484,     321484,      446,     1784, 0x030c1579
0,        219,        219,        1,   153600, 0xd346fb83
1,     321930,     321930,     1024,     4096, 0x60b9fe73
1,     322954,     322954,      446,     1784, 0xb5894a91
0,        220,        220,        1,   153600, 0x8b0f8cd2
1,     323400,     323400,     1024,     4096, 0x3a1c0908
1,     324424,     324424,      446,     1784, 0xdacf9ecb
0,        221,        221,        1,   153600, 0xfed8ff66
1,     324870,     324870,     1024,     4096, 0x3a21da2b
1,     325894,     325894,      446,     1784, 0x2f7c3fef
0,        222,        222,        1,   153600, 0xfb756b00
1,     326340,     326340,     1024,     4096, 0x7cc8eae5
1,     327364,     327364,      446,     1784, 0xef880b0b
0,        223,        223,        1,   153600, 0xbd896445
1,     327810,     327810,     1024,     4096, 0x39f178f1
1,     328834,     328834,      446,     1784, 0x275364e7
0,        224,        224,        1,   153600, 0x47b88a06
1,     329280,     329280,     1024,     4096, 0xdebface1
1,     330304,     330304,      446,     1784, 0xbf33611d
0,        225,        225,        1,   153600, 0xd66b6c67
1,     330750,     330750,     1024,     4096, 0xb4cb423e
1,     331774,     331774,      446,     1784, 0xcab4ad0f
0,        226,        226,        1,   153600, 0x604995b5
1,     332220,     332220,     1024,     4096, 0x6d53c8b5
1,     333244,     333244,      446,     1784, 0x89b1b67b
0,        227,        227,        1,   153600, 0x8ecf90ee
1,     333690,     333690,     1024,     4096, 0x1e9501a0
1,     334714,     334714,      446,     1784, 0xc2c42fd7
0,        228,        228,        1,   153600, 0x576c4afb
1,     335160,     335160,     1024,     4096, 0xe8d5e83b
1,     336184,     336184,      446,     1784, 0x86d02155
0,        229,        229,        1,   153600, 0xcd0f770a
1,     336630,     336630,     1024,     4096, 0x6b45a119
1,     337654,     337654,      446,     1784, 0xb027fa8b
0,        230,        230,        1,   153600, 0xc5ad5c4a
1,     338100,     338100,     1024,     4096, 0x03e7dff1
1,     339124,     339124,      446,     1784, 0x86e3f066
0,        231,        231,        1,   153600, 0x5608d39b
1,     339570,     339570,     1024,     4096, 0x5475b201
1,     340594,     340594,      446,     1784, 0xbcf81024
0,        232,        232,        1,   153600, 0x8b9bc6c7
1,     341040,     341040,     1024,     4096, 0x9e671844
1,     342064,     342064,      446,     1784, 0x0f916e53
0,        233,        233,        1,   153600, 0xd4e4c183
1,     342510,     342510,     1024,     4096, 0x7658c89f
1,     343534,     343534,      446,     1784, 0xa4c85f71
0,        234,        234,        1,   153600, 0xb4ff5d41
1,     343980,     343980,     1024,     4096, 0x7ea41fec
1,     345004,     345004,      446,     1784, 0xaf9a897f
0,        235,        235,        1,   153600, 0x98dec224
1,     345450,     345450,     1024,     4096, 0xa4542385
1,     346474,     346474,      446,     1784, 0x3a0f8135
0,        236,        236,        1,   153600, 0xcda86bdf
1,     346920,     346920,     1024,     4096, 0x67bf8599
1,     347944,     347944,      446,     1784, 0x59fe637b
0,        237,        237,        1,   153600, 0x23034f41
1,     348390,     348390,     1024,     4096, 0x695ae8e7
1,     349414,     349414,      446,     1784, 0xf045ea4e
0,        238,        238,        1,   153600, 0x7529b42c
1,     349860,     349860,     1024,     4096, 0x96b4ac75
1,     350884,     350884,      446,     1784, 0x1b529e29
0,        239,        239,        1,   153600, 0x81735025
1,     351330,     351330,     1024,     4096, 0xc2dbb5e1
1,     352354,     352354,      446,     1784, 0xf7455a7d
0,        240,        240,        1,   153600, 0xc4ce505b
1,     352800,     352800,     1024,     4096, 0x72fe0132
1,     353824,     353824,      446,     1784, 0x7e5974d7
0,        241,        241,        1,   153600, 0x2825bfbe
1,     354270,     354270,     1024,     4096, 0x78a6577d
1,     355294,     355294,      446,     1784, 0x069aa2c5
0,        242,        242,        1,   153600, 0x6aee25dc
1,     355740,     355740,     1024,     4096, 0x42143cc4
1,     356764,     356764,      446,     1784, 0xb3f568d5
0,        243,        243,        1,   153600, 0x853da8e3
1,     357210,     357210,     1024,     4096, 0xbefba5fd
1,     358234,     358234,      446,     1784, 0x6e511a69
0,        244,        244,        1,   153600, 0x1d0a4afb
1,     358680,     358680,     1024,     4096, 0x8dc5cfb5
1,     359704,     359704,      446,     1784, 0x213d27cb
0,        245,        245,        1,   153600, 0x220c278e
1,     360150,     360150,     1024,     4096, 0xc8bd1868
1,     361174,     361174,      446,     1784, 0xab7a1c17
0,        246,        246,        1,   153600, 0xfccc54a4
1,     361620,     361620,     1024,     4096, 0xe8604a9e
1,     362644,     362644,      446,     1784, 0xf0b7c283
0,        247,        247,        1,   153600, 0xa60caa49
1,     363090,     363090,     1024,     4096, 0x8c1067ae
1,     364114,     364114,      446,     1784, 0xc96db4d7
0,        248,        248,        1,   153600, 0xffe49c39
1,     364560,     364560,     1024,     4096, 0x1f5cd9d7
1,     365584,     365584,      446,     1784, 0xb8b06c3d
0,        249,        249,        1,   153600, 0x5f162ef6
1,     366030,     366030,     1024,     4096, 0xd6ccc8a1
1,     367054,     367054,      446,     1784, 0x12dde513
0,        250,        250,        1,   153600, 0x93016524
1,     367500,     367500,     1024,     4096, 0x6cf7c2ff
1,     368524,     368524,      446,     1784, 0xd32dc26b
0,        251,        251,        1,   153600, 0xda3ad2ab
1,     368970,     368970,     1024,     4096, 0xff8f2200
1,     369994,     369994,      446,     1784, 0x3a853961
0,        252,        252,        1,   153600, 0x3fc7c99d
1,     370440,     370440,     1024,     4096, 0x9d6bd8df
1,     371464,     371464,      446,     1784, 0xf5d32187
0,        253,        253,        1,   153600, 0xb0c5c524
1,     371910,     371910,     1024,     4096, 0xa61ad0d3
1,     372934,     372934,      446,     1784, 0xb3c4820f
0,        254,        254,        1,   153600, 0x7489e65a
1,     373380,     373380,     1024,     4096, 0x74d56a9e
1,     374404,     374404,      446,     1784, 0x2ffa8199
0,        255,        255,        1,   153600, 0x5dd5c1f4
1,     374850,     374850,     1024,     4096, 0xecebd94f
1,     375874,     375874,      446,     1784, 0x06d132cd
0,        256,        256,        1,   153600, 0x0cc17074
1,     376320,     376320,     1024,     4096, 0xc2de54f5
1,     377344,     377344,      446,     1784, 0x211852c1
0,        257,        257,        1,   153600, 0xdc3860aa
1,     377790,     377790,     1024,     4096, 0xc41ec8c7
1,     378814,     378814,      446,     1784, 0x596a7517
0,        258,        258,        1,   153600, 0x4c5ab944
1,     379260,     379260,     1024,     4096, 0x5bc13fbb
1,     380284,     380284,      446,     1784, 0x45299fdd
0,        259,        259,        1,   153600, 0xa99e4ea8
1,     380730,     380730,     1024,     4096, 0x347a7847
1,     381754,     381754,      446,     1784, 0x51f6ab3b
0,        260,        260,        1,   153600, 0x31919156
1,     382200,     382200,     1024,     4096, 0xaf1b8783
1,     383224,     383224,      446,     1784, 0x98d9abad
0,        261,        261,        1,   153600, 0xe0e5872b
1,     383670,     383670,     1024,     4096, 0x3ec271db
1,     384694,     384694,      446,     1784, 0x7499f07d
0,        262,        262,        1,   153600, 0x3fa2754a
1,     385140,     385140,     1024,     4096, 0x0aac58b1
1,     386164,     386164,      446,     1784, 0xcfb3b75f
0,        263,        263,        1,   153600, 0x05cae9b3
1,     386610,     386610,     1024,     4096, 0xc032bb5d
1,     387634,     387634,      446,     1784, 0xfa134ac7
0,        264,        264,        1,   153600, 0x3f8c0ea6
1,     388080,     388080,     1024,     4096, 0x4a10078e
1,     389104,     389104,      446,     1784, 0x7a8860b1
0,        265,        265,        1,   153600, 0x24d1e646
1,     389550,     389550,     1024,     4096, 0x89b82adc
1,     390574,     390574,      446,     1784, 0x7367ab1f
0,        266,        266,        1,   153600, 0x53c59cba
1,     391020,     391020,     1024,     4096, 0xcfc2daab
1,     392044,     392044,      446,     1784, 0xfc9a2995
0,        267,        267,        1,   153600, 0x676c85df
1,     392490,     392490,     1024,     4096, 0x71a80460
1,     393514,     393514,      446,     1784, 0x0ed99803
0,        268,        268,        1,   153600, 0x27576743
1,     393960,     393960,     1024,     4096, 0x3f39c81b
1,     394984,     394984,      446,     1784, 0xcce568c3
0,        269,        269,        1,   153600, 0x7122768e
1,     395430,     395430,     1024,     4096, 0x95d6b1d1
1,     396454,     396454,      446,     1784, 0x9a27560f
0,        270,        270,        1,   153600, 0x6aec296b
1,     396900,     396900,     1024,     4096, 0x9b3d7445
1,     397924,     397924,      446,     1784, 0x57dca649
0,        271,        271,        1,   153600, 0x85179fad
1,     398370,     398370,     1024,     4096, 0xefe6523a
1,     399394,     399394,      446,     1784, 0xd03cac13
0,        272,        272,        1,   153600, 0x110f87a2
1,     399840,     399840,     1024,     4096, 0xdcf96ac4
1,     400864,     400864,      446,     1784, 0x1a85e9cf
0,        273,        273,        1,   153600, 0x1fa58306
1,     401310,     401310,     1024,     4096, 0x835943fd
1,     402334,     402334,      446,     1784, 0x3f01a6cb
0,        274,        274,        1,   153600, 0xa7fc3179
1,     402780,     402780,     1024,     4096, 0xfd3315d2
1,     403804,     403804,      446,     1784, 0x9797710d
0,        275,        275,        1,   153600, 0xdb43801e
1,     404250,     404250,     1024,     4096, 0x36541a08
1,     405274,     405274,      446,     1784, 0x78043e61
0,        276,        276,        1,   153600, 0xdc5ab8aa
1,     405720,     405720,     1024,     4096, 0xa86ee4d5
1,     406744,     406744,      446,     1784, 0xfd4710db
0,        277,        277,        1,   153600, 0x7056a85a
1,     407190,     407190,     1024,     4096, 0xe499b7cf
1,     408214,     408214,      446,     1784, 0x59ad1069
0,        278,        278,        1,   153600, 0x818204a7
1,     408660,     408660,     1024,     4096, 0x7165fbd3
1,     409684,     409684,      446,     1784, 0x22d72347
0,        279,        279,        1,   153600, 0x055bab19
1,     410130,     410130,     1024,     4096, 0x3901471c
1,     411154,     411154,      446,     1784, 0x4bbc99e3
0,        280,        280,        1,   153600, 0x3f09f5ab
1,     411600,     411600,     1024,     4096, 0xb1bcedf7
1,     412624,     412624,      446,     1784, 0xeb4686ef
0,        281,        281,        1,   153600, 0x7741ebfd
1,     413070,     413070,     1024,     4096, 0x105929ba
1,     414094,     414094,      446,     1784, 0xf92850db
0,        282,        282,        1,   153600, 0x0a17563a
1,     414540,     414540,     1024,     4096, 0x482e86ff
1,     415564,     415564,      446,     1784, 0xf8c68ef5
0,        283,        283,        1,   153600, 0xb54a5347
1,     416010,     416010,     1024,     4096, 0x33e02476
1,     417034,     417034,      446,     1784, 0xd33ea0ce
0,        284,        284,        1,   153600, 0x3ec0fe03
1,     417480,     417480,     1024,     4096, 0x93b40cdc
1,     418504,     418504,      446,     1784, 0x980aca89
0,        285,        285,        1,   153600, 0xb7184d24
1,     418950,     418950,     1024,     4096, 0xc4f02888
1,     419974,     419974,      446,     1784, 0x2c1cb423
0,        286,        286,        1,   153600, 0x16280036
1,     420420,     420420,     1024,     4096, 0x882c8d0a
1,     421444,     421444,      446,     1784, 0x65eb5251
0,        287,        287,        1,   153600, 0x4f62eb32
1,     421890,     421890,     1024,     4096, 0x06a04c56
1,     422914,     422914,      446,     1784, 0xf2a29a35
0,        288,        288,        1,   153600, 0x6674cf79
1,     423360,     423360,     1024,     4096, 0xb33e1054
1,     424384,     424384,      446,     1784, 0xa59a7663
0,        289,        289,        1,   153600, 0x4849efdc
1,     424830,     424830,     1024,     4096, 0x70122d04
1,     425854,     425854,      446,     1784, 0x3b1fb35d
0,        290,        290,        1,   153600, 0xb25a36ea
1,     426300,     426300,     1024,     4096, 0x8a8023d0
1,     427324,     427324,      446,     1784, 0xc229804b
0,        291,        291,        1,   153600, 0x1bbbb38f
1,     427770,     427770,     1024,     4096, 0xdcde5110
1,     428794,     428794,      446,     1784, 0x817f6635
0,        292,        292,        1,   153600, 0x4c20957c
1,     429240,     429240,     1024,     4096, 0xb4033618
1,     430264,     430264,      446,     1784, 0x0cb687db
0,        293,        293,        1,   153600, 0x63d11a63
1,     430710,     430710,     1024,     4096, 0xa2900242
1,     431734,     431734,      446,     1784, 0xe5156325
0,        294,        294,        1,   153600, 0xd3f6429c
1,     432180,     432180,     1024,     4096, 0x4569f95d
1,     433204,     433204,      446,     1784, 0xd6049863
0,        295,        295,        1,   153600, 0x83a08f81
1,     433650,     433650,     1024,     4096, 0x86555e82
1,     434674,     434674,      446,     1784, 0xd7cb5103
0,        296,        296,        1,   153600, 0xfc0dc9fd
1,     435120,     435120,     1024,     4096, 0xc1c2c11b
1,     436144,     436144,      446,     1784, 0xed6d8937
0,        297,        297,        1,   153600, 0x2dd6b360
1,     436590,     436590,     1024,     4096, 0x1aba52fc
1,     437614,     437614,      446,     1784, 0xd9e44e71
0,        298,        298,        1,   153600, 0x6baa141c
1,     438060,     438060,     1024,     4096, 0x953775e9
1,     439084,     439084,      446,     1784, 0x7e6c568f
0,        299,        299,        1,   153600, 0xc2bbbb3e
1,     439530,     439530,     1024,     4096, 0x46ccbf89
1,     440554,     440554,      446,     1784, 0x2de5177f
0,        300,        300,        1,   153600, 0xcde8dec7
1,     441000,     441000,     1024,     4096, 0x571b3afb
1,     442024,     442024,      446,     1784, 0x9c5005bb
0,        301,        301,        1,   153600, 0x3167d1b7
1,     442470,     442470,     1024,     4096, 0xb0c6d5da
1,     443494,     443494,      446,     1784, 0x4607e8d0
0,        302,        302,        1,   153600, 0xd8563d1f
1,     443940,     443940,     1024,     4096, 0xf728134a
1,     444964,     444964,      446,     1784, 0xa4a59a11
0,        303,        303,        1,   153600, 0x0db13467
1,     445410,     445410,     1024,     4096, 0x6e6f31ac
1,     446434,     446434,      446,     1784, 0x9f4c90b9
0,        304,        304,        1,   153600, 0xd54ee7a6
1,     446880,     446880,     1024,     4096, 0x9f3e6130
1,     447904,     447904,      446,     1784, 0xd4e4a691
0,        305,        305,        1,   153600, 0x7c1733bb
1,     448350,     448350,     1024,     4096, 0x9c25a7b0
1,     449374,     449374,      446,     1784, 0xd5ba828f
0,        306,        306,        1,   153600, 0xa9eee846
1,     449820,     449820,     1024,     4096, 0xb5038a1a
1,     450844,     450844,      446,     1784, 0x98387da1
0,        307,        307,        1,   153600, 0x85d85da4
1,     451290,     451290,     1024,     4096, 0xbfdd8d68
1,     452314,     452314,      446,     1784, 0x03fa6d05
0,        308,        308,        1,   153600, 0x97af3129
1,     452760,     452760,     1024,     4096, 0x4e936ec8
1,     453784,     453784,      446,     1784, 0x8c2a716d
0,        309,        309,        1,   153600, 0x8fc1d8ca
1,     454230,     454230,     1024,     4096, 0x573a8d9a
1,     455254,     455254,      446,     1784, 0x9ba9325d
0,        310,        310,        1,   153600, 0xb152f83a
1,     455700,     455700,     1024,     4096, 0x059a0774
1,     456724,     456724,      446,     1784, 0xb5cb458b
0,        311,        311,        1,   153600, 0x9fa3fcfc
1,     457170,     457170,     1024,     4096, 0xe86631c6
1,     458194,     458194,      446,     1784, 0x30409d45
0,        312,        312,        1,   153600, 0xb499577b
1,     458640,     458640,     1024,     4096, 0xa37701d2
1,     459664,     459664,      446,     1784, 0xf61968cb
0,        313,        313,        1,   153600, 0xa280544c
1,     460110,     460110,     1024,     4096, 0x64caa3bb
1,     461134,     461134,      446,     1784, 0xe2d453dd
0,        314,        314,        1,   153600, 0x8609806f
1,     461580,     461580,     1024,     4096, 0x7111fa79
1,     462604,     462604,      446,     1784, 0x886e7a85
0,        315,        315,        1,   153600, 0xad99ce25
1,     463050,     463050,     1024,     4096, 0xa513e8c5
1,     464074,     464074,      446,     1784, 0x46b6c96d
0,        316,        316,        1,   153600, 0x1aa90e4d
1,     464520,     464520,     1024,     4096, 0x68c2efbb
1,     465544,     465544,      446,     1784, 0xb8ebbbcd
0,        317,        317,        1,   153600, 0x534ff487
1,     465990,     465990,     1024,     4096, 0xf0910269
1,     467014,     467014,      446,     1784, 0x5951d0fd
0,        318,        318,        1,   153600, 0x6381cfc3
1,     467460,     467460,     1024,     4096, 0x7039b967
1,     468484,     468484,      446,     1784, 0xe8dfeca3
0,        319,        319,        1,   153600, 0xfd19fea5
1,     468930,     468930,     1024,     4096, 0x9104ce25
1,     469954,     469954,      446,     1784, 0x27522c41
0,        320,        320,        1,   153600, 0xf06ec679
1,     470400,     470400,     1024,     4096, 0xad9c7c79
1,     471424,     471424,      446,     1784, 0xec2d8441
0,        321,        321,        1,   153600, 0xf890cc49
1,     471870,     471870,     1024,     4096, 0xc27da971
1,     472894,     472894,      446,     1784, 0xccab612d
0,        322,        322,        1,   153600, 0xf8d62833
1,     473340,     473340,     1024,     4096, 0xfb46eacb
1,     474364,     474364,      446,     1784, 0xe5f3987b
0,        323,        323,        1,   153600, 0x12992188
1,     474810,     474810,     1024,     4096, 0xe93431d4
1,     475834,     475834,      446,     1784, 0x24a02f5b
0,        324,        324,        1,   153600, 0x11dad5c3
1,     476280,     476280,     1024,     4096, 0xd452f37b
1,     477304,     477304,      446,     1784, 0x5b8b62ed
0,        325,        325,        1,   153600, 0xb96f206c
1,     477750,     477750,     1024,     4096, 0x3f7fb09d
1,     478774,     478774,      446,     1784, 0x74e16281
0,        326,        326,        1,   153600, 0x2c21d845
1,     479220,     479220,     1024,     4096, 0x3a6b3926
1,     480244,     480244,      446,     1784, 0xae8b38bf
0,        327,        327,        1,   153600, 0xc55e4944
1,     480690,     480690,     1024,     4096, 0xa34bd23b
1,     481714,     481714,      446,     1784, 0xe4247575
0,        328,        328,        1,   153600, 0xb7ce234b
1,     482160,     482160,     1024,     4096, 0x5e8a9725
1,     483184,     483184,      446,     1784, 0xaa4377a5
0,        329,        329,        1,   153600, 0x08bbcd6b
1,     483630,     483630,     1024,     4096, 0x8f223ad6
1,     484654,     484654,      446,     1784, 0x4c8f6fb9
0,        330,        330,        1,   153600, 0x4ee4d260
1,     485100,     485100,     1024,     4096, 0x1cad880a
1,     486124,     486124,      446,     1784, 0x95ba87b1
0,        331,        331,        1,   153600, 0x9066c1c1
1,     486570,     486570,     1024,     4096, 0xcac33c50
1,     487594,     487594,      446,     1784, 0x5cef8887
0,        332,        332,        1,   153600, 0x92e92217
1,     488040,     488040,     1024,     4096, 0xa7afcb8b
1,     489064,     489064,      446,     1784, 0x828f309f
0,        333,        333,        1,   153600, 0x1da918f5
1,     489510,     489510,     1024,     4096, 0x730c57f6
1,     490534,     490534,      446,     1784, 0x394b2e87
0,        334,        334,        1,   153600, 0x61b0bcce
1,     490980,     490980,     1024,     4096, 0xa633635a
1,     492004,     492004,      446,     1784, 0x1b2a9213
0,        335,        335,        1,   153600, 0xb4942175
1,     492450,     492450,     1024,     4096, 0xa827064c
1,     493474,     493474,      446,     1784, 0x65005203
0,        336,        336,        1,   153600, 0x6b94d32c
1,     493920,     493920,     1024,     4096, 0xc2fd28ce
1,     494944,     494944,      446,     1784, 0x15a9bdaf
0,        337,        337,        1,   153600, 0x6b213273
1,     495390,     495390,     1024,     4096, 0x138a9302
1,     496414,     496414,      446,     1784, 0x6e3d543f
0,        338,        338,        1,   153600, 0xa32e980b
1,     496860,     496860,     1024,     4096, 0x24e0b341
1,     497884,     497884,      446,     1784, 0xe26f83db
0,        339,        339,        1,   153600, 0x7174c807
1,     498330,     498330,     1024,     4096, 0xccda5934
1,     499354,     499354,      446,     1784, 0x1fa5842f
0,        340,        340,        1,   153600, 0x44fbeefb
1,     499800,     499800,     1024,     4096, 0x01eaac29
1,     500824,     500824,      446,     1784, 0xef317c83
0,        341,        341,        1,   153600, 0x9154c713
1,     501270,     501270,     1024,     4096, 0x9707f664
1,     502294,     502294,      446,     1784, 0xbcaba6a1
0,        342,        342,        1,   153600, 0x6d263b4c
1,     502740,     502740,     1024,     4096, 0xd89fce23
1,     503764,     503764,      446,     1784, 0x5d3c331f
0,        343,        343,        1,   153600, 0x77f93403
1,     504210,     504210,     1024,     4096, 0xb855c263
1,     505234,     505234,      446,     1784, 0x8caa859d
0,        344,        344,        1,   153600, 0x86315fac
1,     505680,     505680,     1024,     4096, 0xaaa3b14d
1,     506704,     506704,      446,     1784, 0xdeb133c3
0,        345,        345,        1,   153600, 0xedd237f3
1,     507150,     507150,     1024,     4096, 0x77ab1606
1,     508174,     508174,      446,     1784, 0x9ce6a8d7
0,        346,        346,        1,   153600, 0xf3f1e9c7
1,     508620,     508620,     1024,     4096, 0x29785a44
1,     509644,     509644,      446,     1784, 0xa96fb5b9
0,        347,        347,        1,   153600, 0x7282cee4
1,     510090,     510090,     1024,     4096, 0x91a04e12
1,     511114,     511114,      446,     1784, 0xcfd8bcdf
0,        348,        348,        1,   153600, 0x300238f5
1,     511560,     511560,     1024,     4096, 0xd3258771
1,     512584,     512584,      446,     1784, 0x376cac89
0,        349,        349,        1,   153600, 0xcc02e0df
1,     513030,     513030,     1024,     4096, 0x910110b4
1,     514054,     514054,      446,     1784, 0x13328fa3
0,        350,        350,        1,   153600, 0x79a63268
1,     514500,     514500,     1024,     4096, 0xc1170f2e
1,     515524,     515524,      446,     1784, 0x77d5a327
0,        351,        351,        1,   153600, 0x7a970adb
1,     515970,     515970,     1024,     4096, 0x6ade8401
1,     516994,     516994,      446,     1784, 0x38023f65
0,        352,        352,        1,   153600, 0x45c316b7
1,     517440,     517440,     1024,     4096, 0x9e582b67
1,     518464,     518464,      446,     1784, 0xaa34762f
0,        353,        353,        1,   153600, 0x85df77b9
1,     518910,     518910,     1024,     4096, 0x8de4ad8b
1,     519934,     519934,      446,     1784, 0x812daa23
0,        354,        354,        1,   153600, 0x6a70a236
1,     520380,     520380,     1024,     4096, 0x6f8a85f8
1,     521404,     521404,      446,     1784, 0x22d3338f
0,        355,        355,        1,   153600, 0xe96b014c
1,     521850,     521850,     1024,     4096, 0xe2398336
1,     522874,     522874,      446,     1784, 0x52af5fbf
0,        356,        356,        1,   153600, 0xcf883225
1,     523320,     523320,     1024,     4096, 0x48410022
1,     524344,     524344,      446,     1784, 0x37ad62cd
0,        357,        357,        1,   153600, 0xd4151588
1,     524790,     524790,     1024,     4096, 0x4bdc9fc5
1,     525814,     525814,      446,     1784, 0x41f86d5f
0,        358,        358,        1,   153600, 0xd02805a5
1,     526260,     526260,     1024,     4096, 0xfb703dc1
1,     527284,     527284,      446,     1784, 0xd0552fb9
0,        359,        359,        1,   153600, 0x2726aa94
1,     527730,     527730,     1024,     4096, 0xf1f2b493
1,     528754,     528754,      446,     1784, 0x4c27edf6
0,        360,        360,        1,   153600, 0x9777c572
1,     529200,     529200,     1024,     4096, 0xecc7399d
1,     530224,     530224,      446,     1784, 0xa5069ed7
0,        361,        361,        1,   153600, 0x4fc195d3
1,     530670,     530670,     1024,     4096, 0x16f9ea97
1,     531694,     531694,      446,     1784, 0x22d28385
0,        362,        362,        1,   153600, 0xe0701e67
1,     532140,     532140,     1024,     4096, 0xaa0e62bd
1,     533164,     533164,      446,     1784, 0xfd268025
0,        363,        363,        1,   153600, 0x7e3d0600
1,     533610,     533610,     1024,     4096, 0xeeaa6143
1,     534634,     534634,      446,     1784, 0x2f35a1bd
0,        364,        364,        1,   153600, 0xe65a2e24
1,     535080,     535080,     1024,     4096, 0xc31b6fb9
1,     536104,     536104,      446,     1784, 0xf432cc49
0,        365,        365,        1,   153600, 0xae460853
1,     536550,     536550,     1024,     4096, 0x7b3f714b
1,     537574,     537574,      446,     1784, 0xba245ac1
0,        366,        366,        1,   153600, 0xb19a351c
1,     538020,     538020,     1024,     4096, 0x39a60b7c
1,     539044,     539044,      446,     1784, 0x29529ee1
0,        367,        367,        1,   153600, 0xd87d9c54
1,     539490,     539490,     1024,     4096, 0xaed52c7c
1,     540514,     540514,      446,     1784, 0x4dc1b8bd
0,        368,        368,        1,   153600, 0x9f370c16
1,     540960,     540960,     1024,     4096, 0xa7c8994c
1,     541984,     541984,      446,     1784, 0x6c1b9013
0,        369,        369,        1,   153600, 0xf9d7ae97
1,     542430,     542430,     1024,     4096, 0xa4084c98
1,     543454,     543454,      446,     1784, 0x9b555f2b
0,        370,        370,        1,   153600, 0x7e24a607
1,     543900,     543900,     1024,     4096, 0x61769e5d
1,     544924,     544924,      446,     1784, 0xee0858d9
0,        371,        371,        1,   153600, 0x37837543
1,     545370,     545370,     1024,     4096, 0x00e36bb5
1,     546394,     546394,      446,     1784, 0xf84166bf
0,        372,        372,        1,   153600, 0xf5328340
1,     546840,     546840,     1024,     4096, 0xc1518364
1,     547864,     547864,      446,     1784, 0x2d278223
0,        373,        373,        1,   153600, 0x8deae66b
1,     548310,     548310,     1024,     4096, 0x00ca3276
1,     549334,     549334,      446,     1784, 0x2523435b
0,        374,        374,        1,   153600, 0xa91c0d82
1,     549780,     549780,     1024,     4096, 0xd5d22fa4
1,     550804,     550804,      446,     1784, 0xc18362a1
0,        375,        375,        1,   153600, 0xbfd36cc1
1,     551250,     551250,     1024,     4096, 0xa47bb4ee
1,     552274,     552274,      446,     1784, 0xa354a2c9
0,        376,        376,        1,   153600, 0x76b6a3af
1,     552720,     552720,     1024,     4096, 0x6936b2cf
1,     553744,     553744,      446,     1784, 0x44a0b27d
0,        377,        377,        1,   153600, 0xdd4881f2
1,     554190,     554190,     1024,     4096, 0xa811732d
1,     555214,     555214,      446,     1784, 0xfc7dc1ff
0,        378,        378,        1,   153600, 0x94d979f2
1,     555660,     555660,     1024,     4096, 0x1b71f5ef
1,     556684,     556684,      446,     1784, 0xf5267533
0,        379,        379,        1,   153600, 0x3f90916b
1,     557130,     557130,     1024,     4096, 0x22555f7d
1,     558154,     558154,      446,     1784, 0x964357f1
0,        380,        380,        1,   153600, 0xa7f527ea
1,     558600,     558600,     1024,     4096, 0x95b5a90a
1,     559624,     559624,      446,     1784, 0xb0429525
0,        381,        381,        1,   153600, 0x88c50e02
1,     560070,     560070,     1024,     4096, 0xcbf7d667
1,     561094,     561094,      446,     1784, 0x931a9471
0,        382,        382,        1,   153600, 0xe2e3811d
1,     561540,     561540,     1024,     4096, 0x092cfca5
1,     562564,     562564,      446,     1784, 0xeaf8a257
0,        383,        383,        1,   153600, 0x862c7a22
1,     563010,     563010,     1024,     4096, 0x9c80b865
1,     564034,     564034,      446,     1784, 0x205b61f1
0,        384,        384,        1,   153600, 0x4fb3926f
1,     564480,     564480,     1024,     4096, 0x418ca5ef
1,     565504,     565504,      446,     1784, 0x910a2f75
0,        385,        385,        1,   153600, 0x97b86a0f
1,     565950,     565950,     1024,     4096, 0xeeb7b623
1,     566974,     566974,      446,     1784, 0x555a8659
0,        386,        386,        1,   153600, 0xb34824f7
1,     567420,     567420,     1024,     4096, 0xc8fe2196
1,     568444,     568444,      446,     1784, 0x65f18e35
0,        387,        387,        1,   153600, 0xfa850226
1,     568890,     568890,     1024,     4096, 0x2bf83d06
1,     569914,     569914,      446,     1784, 0xee5344d7
0,        388,        388,        1,   153600, 0x530df54f
1,     570360,     570360,     1024,     4096, 0xc428ce93
1,     571384,     571384,      446,     1784, 0x257f50c7
0,        389,        389,        1,   153600, 0x4f441289
1,     571830,     571830,     1024,     4096, 0x201807ce
1,     572854,     572854,      446,     1784, 0xc9ac3735
0,        390,        390,        1,   153600, 0xc73fac42
1,     573300,     573300,     1024,     4096, 0xb5ddd56d
1,     574324,     574324,      446,     1784, 0x879e4ec9
0,        391,        391,        1,   153600, 0x08b417bd
1,     574770,     574770,     1024,     4096, 0xd1d51240
1,     575794,     575794,      446,     1784, 0x434e4e65
0,        392,        392,        1,   153600, 0x8f558b8b
1,     576240,     576240,     1024,     4096, 0x37b9ec3b
1,     577264,     577264,      446,     1784, 0x02c77257
0,        393,        393,        1,   153600, 0x50b4fdaf
1,     577710,     577710,     1024,     4096, 0x0e6f8de5
1,     578734,     578734,      446,     1784, 0x95a892db
0,        394,        394,        1,   153600, 0x4b13a0d2
1,     579180,     579180,     1024,     4096, 0x4c55357e
1,     580204,     580204,      446,     1784, 0x819d83d5
0,        395,        395,        1,   153600, 0x1fb876b0
1,     580650,     580650,     1024,     4096, 0x572f3308
1,     581674,     581674,      446,     1784, 0x6e1238a7
0,        396,        396,        1,   153600, 0xfd5b301f
1,     582120,     582120,     1024,     4096, 0x9f50198e
1,     583144,     583144,      446,     1784, 0x82c2739d
0,        397,        397,        1,   153600, 0xfd560b2a
1,     583590,     583590,     1024,     4096, 0xd64c4ed1
1,     584614,     584614,      446,     1784, 0x0aa13edd
0,        398,        398,        1,   153600, 0x632d8266
1,     585060,     585060,     1024,     4096, 0x35017689
1,     586084,     586084,      446,     1784, 0x61ab4079
0,        399,        399,        1,   153600, 0xca9922d3
1,     586530,     586530,     1024,     4096, 0xc7dd2ff8
1,     587554,     587554,      446,     1784, 0x42ed4ccd
0,        400,        400,        1,   153600, 0x553117c3
1,     588000,     588000,     1024,     4096, 0xb56c052c
1,     589024,     589024,      446,     1784, 0x34888fa1
0,        401,        401,        1,   153600, 0x8fe0fc0d
1,     589470,     589470,     1024,     4096, 0x246963b4
1,     590494,     590494,      446,     1784, 0x9f3c5ed9
0,        402,        402,        1,   153600, 0x244ae33d
1,     590940,     590940,     1024,     4096, 0xdb3a9849
1,     591964,     591964,      446,     1784, 0xa7e13b93
0,        403,        403,        1,   153600, 0x8ce3692a
1,     592410,     592410,     1024,     4096, 0x3320d0ff
1,     593434,     593434,      446,     1784, 0x11775037
0,        404,        404,        1,   153600, 0x684a84f8
1,     593880,     593880,     1024,     4096, 0x1c811c98
1,     594904,     594904,      446,     1784, 0x55f5267d
0,        405,        405,        1,   153600, 0x39425a3c
1,     595350,     595350,     1024,     4096, 0x370e8b63
1,     596374,     596374,      446,     1784, 0x4cc2ff16
0,        406,        406,        1,   153600, 0x58ff1788
1,     596820,     596820,     1024,     4096, 0xa96646ea
1,     597844,     597844,      446,     1784, 0xeac94177
0,        407,        407,        1,   153600, 0xc7c8ea41
1,     598290,     598290,     1024,     4096, 0x0d50b615
1,     599314,     599314,      446,     1784, 0xb90da2a7
0,        408,        408,        1,   153600, 0x994be6a6
1,     599760,     599760,     1024,     4096, 0x86adea47
1,     600784,     600784,      446,     1784, 0x025a55f3
0,        409,        409,        1,   153600, 0x3e360252
1,     601230,     601230,     1024,     4096, 0xb702eef7
1,     602254,     602254,      446,     1784, 0x00c56c05
0,        410,        410,        1,   153600, 0xcc4f4115
1,     602700,     602700,     1024,     4096, 0xde43e592
1,     603724,     603724,      446,     1784, 0x07358479
0,        411,        411,        1,   153600, 0x2020ae1f
1,     604170,     604170,     1024,     4096, 0x9aaee24b
1,     605194,     605194,      446,     1784, 0xb02b2ee3
0,        412,        412,        1,   153600, 0x4cef98d3
1,     605640,     605640,     1024,     4096, 0x44bd24d6
1,     606664,     606664,      446,     1784, 0xa34e8f2f
0,        413,        413,        1,   153600, 0x4994977e
1,     607110,     607110,     1024,     4096, 0xccd7beaf
1,     608134,     608134,      446,     1784, 0xa4c69fab
0,        414,        414,        1,   153600, 0xdee84839
1,     608580,     608580,     1024,     4096, 0xba5ae3f5
1,     609604,     609604,      446,     1784, 0x2b5580bf
0,        415,        415,        1,   153600, 0xbedd1e38
1,     610050,     610050,     1024,     4096, 0x41384acc
1,     611074,     611074,      446,     1784, 0x7adbc845
0,        416,        416,        1,   153600, 0xe4aacb36
1,     611520,     611520,     1024,     4096, 0xbd92d0ed
1,     612544,     612544,      446,     1784, 0x509fc6d9
0,        417,        417,        1,   153600, 0x20d6216b
1,     612990,     612990,     1024,     4096, 0x43ec3504
1,     614014,     614014,      446,     1784, 0xbc3779cb
0,        418,        418,        1,   153600, 0xcaf49996
1,     614460,     614460,     1024,     4096, 0x88beb247
1,     615484,     615484,      446,     1784, 0x6a4575a9
0,        419,        419,        1,   153600, 0x6f98c393
1,     615930,     615930,     1024,     4096, 0x74566224
1,     616954,     616954,      446,     1784, 0x6f18828f
0,        420,        420,        1,   153600, 0x28d770e3
1,     617400,     617400,     1024,     4096, 0x17147bad
1,     618424,     618424,      446,     1784, 0x40918b63
0,        421,        421,        1,   153600, 0x79a3c793
1,     618870,     618870,     1024,     4096, 0x2dae4838
1,     619894,     619894,      446,     1784, 0x79848267
0,        422,        422,        1,   153600, 0xc50fc585
1,     620340,     620340,     1024,     4096, 0xceea2e12
1,     621364,     621364,      446,     1784, 0x1e305def
0,        423,        423,        1,   153600, 0x3340beeb
1,     621810,     621810,     1024,     4096, 0x62d7dc43
1,     622834,     622834,      446,     1784, 0xa1d051a5
0,        424,        424,        1,   153600, 0xecdc65d9
1,     623280,     623280,     1024,     4096, 0x71765160
1,     624304,     624304,      446,     1784, 0x66a76087
0,        425,        425,        1,   153600, 0x12a83b12
1,     624750,     624750,     1024,     4096, 0x2afd2dc0
1,     625774,     625774,      446,     1784, 0x4efe5625
0,        426,        426,        1,   153600, 0xd33473cd
1,     626220,     626220,     1024,     4096, 0xf9edeb2d
1,     627244,     627244,      446,     1784, 0xb00c749b
0,        427,        427,        1,   153600, 0x2e594d77
1,     627690,     627690,     1024,     4096, 0x42760715
1,     628714,     628714,      446,     1784, 0x450008f3
0,        428,        428,        1,   153600, 0xb3a9c675
1,     629160,     629160,     1024,     4096, 0x07f83e4f
1,     630184,     630184,      446,     1784, 0xdabd46a9
0,        429,        429,        1,   153600, 0x2b9c630e
1,     630630,     630630,     1024,     4096, 0x9549c729
1,     631654,     631654,      446,     1784, 0xdbcebd7f
0,        430,        430,        1,   153600, 0xb4d33a27
1,     632100,     632100,     1024,     4096, 0xe913f6b9
1,     633124,     633124,      446,     1784, 0x698ac253
0,        431,        431,        1,   153600, 0xbdce16b7
1,     633570,     633570,     1024,     4096, 0x17f8f3bf
1,     634594,     634594,      446,     1784, 0x8ec78abb
0,        432,        432,        1,   153600, 0xf0de8dcd
1,     635040,     635040,     1024,     4096, 0xaf04577f
1,     636064,     636064,      446,     1784, 0x7ef0e700
0,        433,        433,        1,   153600, 0xe419871d
1,     636510,     636510,     1024,     4096, 0x874eb5f5
1,     637534,     637534,      446,     1784, 0x29cb49c9
0,        434,        434,        1,   153600, 0x1bbeb1a3
1,     637980,     637980,     1024,     4096, 0x3ff70ba0
1,     639004,     639004,      446,     1784, 0xe67abfab
0,        435,        435,        1,   153600, 0xb81970fa
1,     639450,     639450,     1024,     4096, 0xfeca21b4
1,     640474,     640474,      446,     1784, 0x542aab19
0,        436,        436,        1,   153600, 0xacc7bf35
1,     640920,     640920,     1024,     4096, 0x61277eec
1,     641944,     641944,      446,     1784, 0xaf157ff3
0,        437,        437,        1,   153600, 0xecd50c53
1,     642390,     642390,     1024,     4096, 0x9c2b01e2
1,     643414,     643414,      446,     1784, 0x4025c723
0,        438,        438,        1,   153600, 0xd656883f
1,     643860,     643860,     1024,     4096, 0x11a507b6
1,     644884,     644884,      446,     1784, 0xdd9f1a91
0,        439,        439,        1,   153600, 0x251db0c4
1,     645330,     645330,     1024,     4096, 0xfe8f1392
1,     646354,     646354,      446,     1784, 0x27407f27
0,        440,        440,        1,   153600, 0xbdd2fdd7
1,     646800,     646800,     1024,     4096, 0x868c7189
1,     647824,     647824,      446,     1784, 0xbe973f8d
0,        441,        441,        1,   153600, 0x9428d974
1,     648270,     648270,     1024,     4096, 0x5b495038
1,     649294,     649294,      446,     1784, 0x0c698279
0,        442,        442,        1,   153600, 0xd187d9c6
1,     649740,     649740,     1024,     4096, 0x2d88966d
1,     650764,     650764,      446,     1784, 0x2f016785
0,        443,        443,        1,   153600, 0x848dd3ef
1,     651210,     651210,     1024,     4096, 0x34ceb932
1,     652234,     652234,      446,     1784, 0x66b2caab
0,        444,        444,        1,   153600, 0xcafafb91
1,     652680,     652680,     1024,     4096, 0x0dbdbf3d
1,     653704,     653704,      446,     1784, 0x29d5db15
0,        445,        445,        1,   153600, 0x777dbd09
1,     654150,     654150,     1024,     4096, 0xccc039da
1,     655174,     655174,      446,     1784, 0x43d128cf
0,        446,        446,        1,   153600, 0xd8ac7f1b
1,     655620,     655620,     1024,     4096, 0xa3e89aa1
1,     656644,     656644,      446,     1784, 0x138fa597
0,        447,        447,        1,   153600, 0x29a4556a
1,     657090,     657090,     1024,     4096, 0x4a6fbb8f
1,     658114,     658114,      446,     1784, 0xbff769a5
0,        448,        448,        1,   153600, 0x6583d12b
1,     658560,     658560,     1024,     4096, 0xc6ada5ac
1,     659584,     659584,      446,     1784, 0xc6b53761
0,        449,        449,        1,   153600, 0x7e3f6afe
1,     660030,     660030,     1024,     4096, 0x181e4ba0
1,     661054,     661054,      446,     1784, 0xb0eaaa95
0,        450,        450,        1,   153600, 0x5ef6e6c6
1,     661500,     661500,     1024,     4096, 0xdc060082
1,     662524,     662524,      446,     1784, 0x7a2a7d61
0,        451,        451,        1,   153600, 0x69b6c174
1,     662970,     662970,     1024,     4096, 0xea0951e2
1,     663994,     663994,      446,     1784, 0x5945c817
0,        452,        452,        1,   153600, 0x970b3a3a
1,     664440,     664440,     1024,     4096, 0xde0e8751
1,     665464,     665464,      446,     1784, 0xb546514d
0,        453,        453,        1,   153600, 0x5d41342a
1,     665910,     665910,     1024,     4096, 0x87fd9a69
1,     666934,     666934,      446,     1784, 0x1419cb43
0,        454,        454,        1,   153600, 0xe36d60a7
1,     667380,     667380,     1024,     4096, 0x5bf8955b
1,     668404,     668404,      446,     1784, 0x00c9c3e7
0,        455,        455,        1,   153600, 0x8a9d3689
1,     668850,     668850,     1024,     4096, 0x8f73d13b
1,     669874,     669874,      446,     1784, 0x8585b3b5
0,        456,        456,        1,   153600, 0x7e4ef89d
1,     670320,     670320,     1024,     4096, 0x3abb8c27
1,     671344,     671344,      446,     1784, 0x7aca5991
0,        457,        457,        1,   153600, 0x8344cc45
1,     671790,     671790,     1024,     4096, 0xc3a59f47
1,     672814,     672814,      446,     1784, 0x4a7db52f
0,        458,        458,        1,   153600, 0x2db2499f
1,     673260,     673260,     1024,     4096, 0x3cf005cd
1,     674284,     674284,      446,     1784, 0xb1a6bfba
0,        459,        459,        1,   153600, 0x4b7dea95
1,     674730,     674730,     1024,     4096, 0xfb22c3ec
1,     675754,     675754,      446,     1784, 0x583d56b7
0,        460,        460,        1,   153600, 0xe9d9e236
1,     676200,     676200,     1024,     4096, 0x3578697c
1,     677224,     677224,      446,     1784, 0x2880eb8d
0,        461,        461,        1,   153600, 0xf499bce4
1,     677670,     677670,     1024,     4096, 0xd6d0ea1a
1,     678694,     678694,      446,     1784, 0xba9e582b
0,        462,        462,        1,   153600, 0x21fd35aa
1,     679140,     679140,     1024,     4096, 0xfdda946d
1,     680164,     680164,      446,     1784, 0xb086397d
0,        463,        463,        1,   153600, 0xe8242f9a
1,     680610,     680610,     1024,     4096, 0x7bbc0522
1,     681634,     681634,      446,     1784, 0x870fb185
0,        464,        464,        1,   153600, 0x6e5f5c17
1,     682080,     682080,     1024,     4096, 0x69d29864
1,     683104,     683104,      446,     1784, 0xd48b52c7
0,        465,        465,        1,   153600, 0x158f31f9
1,     683550,     683550,     1024,     4096, 0x831d4c38
1,     684574,     684574,      446,     1784, 0x20f2739f
0,        466,        466,        1,   153600, 0x0940f40d
1,     685020,     685020,     1024,     4096, 0xd195a561
1,     686044,     686044,      446,     1784, 0x0df0768b
0,        467,        467,        1,   153600, 0x0e36c7b5
1,     686490,     686490,     1024,     4096, 0x4a66493a
1,     687514,     687514,      446,     1784, 0x8acf6e1b
0,        468,        468,        1,   153600, 0xb895450f
1,     687960,     687960,     1024,     4096, 0x53449548
1,     688984,     688984,      446,     1784, 0xa702dbc7
0,        469,        469,        1,   153600, 0xd660e605
1,     689430,     689430,     1024,     4096, 0xc0e50754
1,     690454,     690454,      446,     1784, 0x6b8c7bcf
0,        470,        470,        1,   153600, 0xaf140c90
1,     690900,     690900,     1024,     4096, 0x4606ac3b
1,     691924,     691924,      446,     1784, 0xfadb5c53
0,        471,        471,        1,   153600, 0xb9d4e72f
1,     692370,     692370,     1024,     4096, 0x67adfba7
1,     693394,     693394,      446,     1784, 0xfa76afa1
0,        472,        472,        1,   153600, 0xe7295ff5
1,     693840,     693840,     1024,     4096, 0x7e2bfed5
1,     694864,     694864,      446,     1784, 0xfe8f02cb
0,        473,        473,        1,   153600, 0xad5f59e5
1,     695310,     695310,     1024,     4096, 0x0a3a2d29
1,     696334,     696334,      446,     1784, 0x5fd7c1e7
0,        474,        474,        1,   153600, 0x339a8662
1,     696780,     696780,     1024,     4096, 0x0a236983
1,     697804,     697804,      446,     1784, 0x847a86a9
0,        475,        475,        1,   153600, 0xdabb5c44
1,     698250,     698250,     1024,     4096, 0x62a39e8b
1,     699274,     699274,      446,     1784, 0x0ccfa4f9
0,        476,        476,        1,   153600, 0xce6c1e67
1,     699720,     699720,     1024,     4096, 0x2eb23f89
1,     700744,     700744,      446,     1784, 0x27250cdb
0,        477,        477,        1,   153600, 0xd362f200
1,     701190,     701190,     1024,     4096, 0x9764386b
1,     702214,     702214,      446,     1784, 0xe4aa1b95
0,        478,        478,        1,   153600, 0x7dd06f5a
1,     702660,     702660,     1024,     4096, 0x6e96b053
1,     703684,     703684,      446,     1784, 0xc90fc445
0,        479,        479,        1,   153600, 0x9b9b105f
1,     704130,     704130,     1024,     4096, 0xff4d8a1c
1,     705154,     705154,      446,     1784, 0xc8b240c9
